<?xml version="1.0" encoding="UTF-8" standalone="no"?>
<!-- Creator: CorelDRAW X8 -->

<svg
   xmlns:dc="http://purl.org/dc/elements/1.1/"
   xmlns:cc="http://creativecommons.org/ns#"
   xmlns:rdf="http://www.w3.org/1999/02/22-rdf-syntax-ns#"
   xmlns:svg="http://www.w3.org/2000/svg"
   xmlns="http://www.w3.org/2000/svg"
   xmlns:sodipodi="http://sodipodi.sourceforge.net/DTD/sodipodi-0.dtd"
   xmlns:inkscape="http://www.inkscape.org/namespaces/inkscape"
   xml:space="preserve"
   width="100mm"
   height="100mm"
   version="1.1"
   style="shape-rendering:geometricPrecision; text-rendering:geometricPrecision; image-rendering:optimizeQuality; fill-rule:evenodd; clip-rule:evenodd"
   viewBox="0 0 10000 10000"
   id="svg33"
   sodipodi:docname="1_round_fonts.svg"
   inkscape:version="0.92.3 (2405546, 2018-03-11)"><metadata
   id="metadata37"><rdf:RDF><cc:Work
       rdf:about=""><dc:format>image/svg+xml</dc:format><dc:type
         rdf:resource="http://purl.org/dc/dcmitype/StillImage" /></cc:Work></rdf:RDF></metadata><sodipodi:namedview
   pagecolor="#ffffff"
   bordercolor="#666666"
   borderopacity="1"
   objecttolerance="10"
   gridtolerance="10"
   guidetolerance="10"
   inkscape:pageopacity="0"
   inkscape:pageshadow="2"
   inkscape:window-width="1366"
   inkscape:window-height="768"
   id="namedview35"
   showgrid="false"
   inkscape:zoom="1.2488333"
   inkscape:cx="178.7324"
   inkscape:cy="168.45531"
   inkscape:window-x="0"
   inkscape:window-y="0"
   inkscape:window-maximized="1"
   inkscape:current-layer="svg33" />
 <defs
   id="defs7">
  <style
   type="text/css"
   id="style2">
   <![CDATA[
    .str1 {stroke:#1A1A1A;stroke-width:200}
    .str0 {stroke:#ADAD40;stroke-width:200}
    .fil3 {fill:none}
    .fil2 {fill:#1A1A1A}
    .fil1 {fill:#333333}
    .fil5 {fill:#4D4D4D}
    .fil0 {fill:#ADAD40}
    .fil4 {fill:black;fill-rule:nonzero}
   ]]>
  </style>
    <clipPath
   id="id0">
     <path
   d="M5000 1120c2034,0 3683,1649 3683,3683 0,2034 -1649,3683 -3683,3683 -2034,0 -3683,-1649 -3683,-3683 0,-2034 1649,-3683 3683,-3683z"
   id="path4" />
    </clipPath>
 
  
  
 
   
   
   
   
   
   
   
   
   
  </defs>
 <path
   class="fil1"
   d="m 5000,1120 c 2034,0 3683,1649 3683,3683 0,2034 -1649,3683 -3683,3683 -2034,0 -3683,-1649 -3683,-3683 0,-2034 1649,-3683 3683,-3683 z"
   id="path12"
   inkscape:connector-curvature="0"
   style="fill:#333333" /><path
   class="fil3"
   d="m 5000,1120 c 2034,0 3683,1649 3683,3683 0,2034 -1649,3683 -3683,3683 -2034,0 -3683,-1649 -3683,-3683 0,-2034 1649,-3683 3683,-3683 z"
   id="path19"
   inkscape:connector-curvature="0"
   style="fill:none" /><g
   clip-path="url(#id0)"
   id="g17"
   transform="rotate(-33.3,4787.3885,5011.9628)">
    <g
   id="g15">
     <path
   id="1"
   class="fil2 str1"
   d="m 1042,6429 c 18,104 48,206 91,304 40,91 90,176 150,255 L 3469,5879 3332,5569 Z"
   inkscape:connector-curvature="0"
   style="fill:#1a1a1a;stroke:#1a1a1a;stroke-width:200" />
    </g>
   </g><path
   class="fil4"
   d="m 5000,1020 c 1045,0 1990,424 2675,1108 685,685 1108,1631 1108,2675 0,1045 -423,1991 -1108,2675 C 6990,8163 6045,8586 5000,8586 3955,8586 3010,8163 2325,7478 1640,6794 1217,5848 1217,4803 1217,3759 1640,2813 2325,2128 3010,1444 3955,1020 5000,1020 Z M 7534,2270 C 6885,1621 5989,1220 5000,1220 c -989,0 -1885,401 -2534,1050 -648,648 -1049,1544 -1049,2533 0,990 401,1886 1049,2534 649,648 1545,1049 2534,1049 989,0 1885,-401 2534,-1049 648,-648 1049,-1544 1049,-2534 0,-989 -401,-1885 -1049,-2533 z"
   id="path21"
   inkscape:connector-curvature="0"
   style="fill:#000000;fill-rule:nonzero" /><path
   class="fil5"
   d="m 2410.6843,7906.0532 c 72.6919,77.8773 152.9307,147.208 242.1256,204.6733 84.7782,54.3844 173.2355,97.9769 266.7568,131.0643 L 4136.9394,6115.2656 3853.0726,5930.8324 Z"
   id="path23"
   inkscape:connector-curvature="0"
   style="fill:#4d4d4d" /><path
   class="fil4"
   d="m 2541.9396,7896.4072 c 16.2576,15.6427 32.8019,29.9005 49.3462,44.1583 36.1206,31.3098 75.0353,59.5878 116.4575,86.2187 39.4883,25.5082 78.7144,48.7959 118.8008,67.929 15.7576,7.5959 31.5152,15.1918 48.6577,23.0745 l 1128.6634,-1970.1453 -126.7494,-81.8511 z m -79.8345,197.2117 c -44.1182,-38.0209 -85.729,-77.6888 -123.9965,-119.5528 l -56.1722,-60.0141 1545.7081,-2118.4654 443.205,286.7531 -1306.6312,2282.0693 -78.5749,-28.5479 c -49.8047,-17.5352 -98.2002,-38.3891 -147.9559,-63.1352 -48.6576,-23.0745 -95.0701,-50.0167 -138.4261,-77.7702 -47.7728,-30.8344 -92.7513,-64.7008 -137.1563,-101.3368 z"
   id="path25"
   inkscape:connector-curvature="0"
   style="fill:#000000;fill-rule:nonzero" /><path
   class="fil5"
   d="m 5000,2298 c 1384,0 2506,1121 2506,2505 0,1384 -1122,2506 -2506,2506 -1384,0 -2506,-1122 -2506,-2506 0,-1384 1122,-2505 2506,-2505 z"
   id="path27"
   inkscape:connector-curvature="0"
   style="fill:#4d4d4d" /><path
   class="fil4"
   d="m 5000,2198 c 720,0 1371,291 1843,763 471,471 763,1123 763,1842 0,720 -292,1371 -763,1843 -472,472 -1123,763 -1843,763 -720,0 -1371,-291 -1843,-763 -471,-472 -763,-1123 -763,-1843 0,-719 292,-1371 763,-1842 472,-472 1123,-763 1843,-763 z m 1701,904 c -435,-435 -1037,-704 -1701,-704 -664,0 -1266,269 -1701,704 -436,436 -705,1037 -705,1701 0,665 269,1266 705,1702 435,435 1037,704 1701,704 664,0 1266,-269 1701,-704 436,-436 705,-1037 705,-1702 0,-664 -269,-1265 -705,-1701 z"
   id="path29"
   inkscape:connector-curvature="0"
   style="fill:#000000;fill-rule:nonzero" />
</svg>