<?xml version="1.0" encoding="UTF-8" standalone="no"?>
<!-- Creator: CorelDRAW X8 -->

<svg
   xmlns:dc="http://purl.org/dc/elements/1.1/"
   xmlns:cc="http://creativecommons.org/ns#"
   xmlns:rdf="http://www.w3.org/1999/02/22-rdf-syntax-ns#"
   xmlns:svg="http://www.w3.org/2000/svg"
   xmlns="http://www.w3.org/2000/svg"
   xmlns:sodipodi="http://sodipodi.sourceforge.net/DTD/sodipodi-0.dtd"
   xmlns:inkscape="http://www.inkscape.org/namespaces/inkscape"
   xml:space="preserve"
   width="100mm"
   height="100mm"
   version="1.1"
   style="shape-rendering:geometricPrecision; text-rendering:geometricPrecision; image-rendering:optimizeQuality; fill-rule:evenodd; clip-rule:evenodd"
   viewBox="0 0 10000 10000"
   id="svg33"
   sodipodi:docname="1_round_fonts.svg"
   inkscape:version="0.92.3 (2405546, 2018-03-11)"><metadata
   id="metadata37"><rdf:RDF><cc:Work
       rdf:about=""><dc:format>image/svg+xml</dc:format><dc:type
         rdf:resource="http://purl.org/dc/dcmitype/StillImage" /></cc:Work></rdf:RDF></metadata><sodipodi:namedview
   pagecolor="#ffffff"
   bordercolor="#666666"
   borderopacity="1"
   objecttolerance="10"
   gridtolerance="10"
   guidetolerance="10"
   inkscape:pageopacity="0"
   inkscape:pageshadow="2"
   inkscape:window-width="1366"
   inkscape:window-height="768"
   id="namedview35"
   showgrid="false"
   inkscape:zoom="0.62441667"
   inkscape:cx="188.97638"
   inkscape:cy="188.97638"
   inkscape:window-x="0"
   inkscape:window-y="0"
   inkscape:window-maximized="1"
   inkscape:current-layer="svg33" />
 <defs
   id="defs7">
  <style
   type="text/css"
   id="style2">
   <![CDATA[
    .str1 {stroke:#1A1A1A;stroke-width:200}
    .str0 {stroke:#ADAD40;stroke-width:200}
    .fil3 {fill:none}
    .fil2 {fill:#1A1A1A}
    .fil1 {fill:#333333}
    .fil5 {fill:#4D4D4D}
    .fil0 {fill:#ADAD40}
    .fil4 {fill:black;fill-rule:nonzero}
   ]]>
  </style>
    <clipPath
   id="id0">
     <path
   d="M5000 1120c2034,0 3683,1649 3683,3683 0,2034 -1649,3683 -3683,3683 -2034,0 -3683,-1649 -3683,-3683 0,-2034 1649,-3683 3683,-3683z"
   id="path4" />
    </clipPath>
 
  
  
 
   
   
   
   
   
   
   
   
   
  </defs>
 <path
   class="fil1"
   d="m 5000,1120 c 2034,0 3683,1649 3683,3683 0,2034 -1649,3683 -3683,3683 -2034,0 -3683,-1649 -3683,-3683 0,-2034 1649,-3683 3683,-3683 z"
   id="path12"
   inkscape:connector-curvature="0"
   style="fill:#333333" /><g
   clip-path="url(#id0)"
   id="g17">
    <g
   id="g15">
     <path
   id="1"
   class="fil2 str1"
   d="m 1042,6429 c 18,104 48,206 91,304 40,91 90,176 150,255 L 3469,5879 3332,5569 Z"
   inkscape:connector-curvature="0"
   style="fill:#1a1a1a;stroke:#1a1a1a;stroke-width:200" />
    </g>
   </g><path
   class="fil3"
   d="m 5000,1120 c 2034,0 3683,1649 3683,3683 0,2034 -1649,3683 -3683,3683 -2034,0 -3683,-1649 -3683,-3683 0,-2034 1649,-3683 3683,-3683 z"
   id="path19"
   inkscape:connector-curvature="0"
   style="fill:none" /><path
   class="fil4"
   d="m 5000,1020 c 1045,0 1990,424 2675,1108 685,685 1108,1631 1108,2675 0,1045 -423,1991 -1108,2675 C 6990,8163 6045,8586 5000,8586 3955,8586 3010,8163 2325,7478 1640,6794 1217,5848 1217,4803 1217,3759 1640,2813 2325,2128 3010,1444 3955,1020 5000,1020 Z M 7534,2270 C 6885,1621 5989,1220 5000,1220 c -989,0 -1885,401 -2534,1050 -648,648 -1049,1544 -1049,2533 0,990 401,1886 1049,2534 649,648 1545,1049 2534,1049 989,0 1885,-401 2534,-1049 648,-648 1049,-1544 1049,-2534 0,-989 -401,-1885 -1049,-2533 z"
   id="path21"
   inkscape:connector-curvature="0"
   style="fill:#000000;fill-rule:nonzero" /><path
   class="fil5"
   d="m 1212,6126 c 18,105 47,207 90,304 41,92 91,177 151,256 L 3638,5577 3502,5267 Z"
   id="path23"
   inkscape:connector-curvature="0"
   style="fill:#4d4d4d" /><path
   class="fil4"
   d="m 1327,6190 c 5,22 11,43 17,64 13,46 30,91 50,136 19,43 39,84 62,122 9,15 18,30 28,46 l 2025,-1027 -61,-138 z m -175,121 c -16,-56 -29,-112 -38,-168 l -14,-81 2455,-922 213,483 -2345,1190 -50,-67 c -32,-42 -61,-86 -89,-134 -28,-46 -52,-94 -73,-141 -23,-52 -42,-105 -59,-160 z"
   id="path25"
   inkscape:connector-curvature="0"
   style="fill:#000000;fill-rule:nonzero" /><path
   class="fil5"
   d="m 5000,2298 c 1384,0 2506,1121 2506,2505 0,1384 -1122,2506 -2506,2506 -1384,0 -2506,-1122 -2506,-2506 0,-1384 1122,-2505 2506,-2505 z"
   id="path27"
   inkscape:connector-curvature="0"
   style="fill:#4d4d4d" /><path
   class="fil4"
   d="m 5000,2198 c 720,0 1371,291 1843,763 471,471 763,1123 763,1842 0,720 -292,1371 -763,1843 -472,472 -1123,763 -1843,763 -720,0 -1371,-291 -1843,-763 -471,-472 -763,-1123 -763,-1843 0,-719 292,-1371 763,-1842 472,-472 1123,-763 1843,-763 z m 1701,904 c -435,-435 -1037,-704 -1701,-704 -664,0 -1266,269 -1701,704 -436,436 -705,1037 -705,1701 0,665 269,1266 705,1702 435,435 1037,704 1701,704 664,0 1266,-269 1701,-704 436,-436 705,-1037 705,-1702 0,-664 -269,-1265 -705,-1701 z"
   id="path29"
   inkscape:connector-curvature="0"
   style="fill:#000000;fill-rule:nonzero" />
</svg>