<?xml version="1.0" encoding="UTF-8"?>
<!DOCTYPE svg PUBLIC "-//W3C//DTD SVG 1.1//EN" "http://www.w3.org/Graphics/SVG/1.1/DTD/svg11.dtd">
<!-- Creator: CorelDRAW X8 -->
<svg xmlns="http://www.w3.org/2000/svg" xml:space="preserve" width="42.3332mm" height="42.3332mm" version="1.1" style="shape-rendering:geometricPrecision; text-rendering:geometricPrecision; image-rendering:optimizeQuality; fill-rule:evenodd; clip-rule:evenodd"
viewBox="0 0 4233 4233"
 xmlns:xlink="http://www.w3.org/1999/xlink">
 <defs>
  <style type="text/css">
   <![CDATA[
    .fil0 {fill:gray}
   ]]>
  </style>
 </defs>
 <g id="Слой_x0020_1">
  <metadata id="CorelCorpID_0Corel-Layer"/>
  <path class="fil0" d="M0 0l4233 0 0 4233 -4233 0 0 -4233zm3070 1263l0 1081 0 0c-1,87 -36,165 -93,222 -57,57 -135,92 -221,92l-1198 0 -330 382c-15,17 -33,30 -52,39 -20,9 -42,14 -64,14 -42,0 -81,-17 -108,-45 -28,-28 -45,-66 -45,-108l0 -281 -34 0c-87,0 -166,-36 -223,-93 -57,-57 -93,-136 -93,-223l0 -1080c0,-87 36,-166 93,-224l0 0c58,-57 136,-92 223,-92l1829 0c87,0 166,35 223,92l0 0c57,58 93,137 93,224zm-1615 1170c15,-7 31,-10 48,-10l1251 0c22,0 42,-9 56,-24l1 0c14,-14 23,-34 23,-56l0 -1080c0,-22 -9,-42 -23,-57l-1 0c-14,-14 -34,-23 -56,-23l-1829 0c-22,0 -42,9 -56,23 -15,15 -24,35 -24,57l0 1079c0,22 9,42 24,57 14,14 34,23 56,23l151 0c32,0 62,13 83,35l0 0c22,21 35,51 35,83l0 178 220 -255c12,-13 25,-23 41,-30zm1618 1091c-19,-9 -37,-22 -52,-39l-330 -381 -1051 0c-33,0 -63,-13 -84,-34 -21,-22 -35,-51 -35,-84 0,-33 14,-62 35,-84 21,-21 51,-34 84,-34l1105 0c17,0 34,3 49,10 15,7 29,17 40,31l220 254 0 -178c0,-32 14,-62 35,-83 21,-22 51,-35 84,-35l150 0c22,0 42,-9 57,-23 14,-15 23,-35 23,-57l0 -1080c0,-22 -9,-42 -23,-56l0 0c-15,-15 -35,-24 -57,-24 -32,0 -62,-13 -83,-34 -22,-22 -35,-51 -35,-84 0,-32 13,-62 35,-83 21,-22 51,-35 83,-35 87,0 166,36 224,93l0 0c57,57 92,136 92,223l0 1080c0,87 -35,166 -92,223l0 0c-58,58 -137,93 -224,93l-33 0 0 281c0,33 -9,63 -27,88 -17,25 -42,44 -72,56l0 0c-9,3 -18,6 -27,7 -9,2 -19,3 -27,3 -22,0 -44,-5 -64,-14zm-1101 -1696c0,37 -15,70 -39,94 -24,24 -57,39 -93,39 -37,0 -70,-15 -94,-39 -24,-24 -38,-57 -38,-94 0,-36 14,-69 38,-93 24,-24 57,-39 94,-39 36,0 69,15 93,39l0 0c24,24 39,57 39,93zm294 0c0,37 -15,70 -39,94l0 0c-24,24 -57,39 -94,39 -36,0 -69,-15 -93,-39l0 0c-24,-24 -39,-57 -39,-94 0,-36 15,-69 39,-93l0 0c24,-24 57,-39 93,-39 37,0 70,15 94,39 24,24 39,57 39,93zm-588 0c0,37 -15,70 -39,94 -24,24 -57,39 -93,39 -37,0 -70,-15 -93,-39l0 0c-24,-24 -39,-57 -39,-94 0,-36 15,-69 39,-93 23,-24 56,-39 93,-39 36,0 69,15 93,39l0 0c24,24 39,57 39,93z"/>
 </g>
</svg>
