<?xml version="1.0" encoding="UTF-8"?>
<!DOCTYPE svg PUBLIC "-//W3C//DTD SVG 1.1//EN" "http://www.w3.org/Graphics/SVG/1.1/DTD/svg11.dtd">
<!-- Creator: CorelDRAW X8 -->
<svg xmlns="http://www.w3.org/2000/svg" xml:space="preserve" width="42.3332mm" height="42.3332mm" version="1.1" style="shape-rendering:geometricPrecision; text-rendering:geometricPrecision; image-rendering:optimizeQuality; fill-rule:evenodd; clip-rule:evenodd"
viewBox="0 0 4233 4233"
 xmlns:xlink="http://www.w3.org/1999/xlink">
 <defs>
  <style type="text/css">
   <![CDATA[
    .fil0 {fill:gray}
   ]]>
  </style>
 </defs>
 <g id="Слой_x0020_1">
  <metadata id="CorelCorpID_0Corel-Layer"/>
  <path class="fil0" d="M0 0l4233 0 0 4233 -4233 0 0 -4233zm1305 2526l441 0 81 326 380 0 -461 -1506 -432 0 -461 1506 372 0 80 -326zm383 -256l-326 0 163 -667 163 667zm1616 -202c0,-265 -161,-409 -504,-409 -128,0 -300,31 -450,87l81 228c115,-39 241,-60 315,-60 150,0 228,56 228,178l0 41 -155 0c-356,0 -562,143 -562,393 0,213 152,363 391,363 143,0 291,-50 378,-156 54,95 148,139 282,152l72 -226c-54,-20 -76,-52 -76,-139l0 -452zm-539 576c-98,0 -154,-53 -154,-142 0,-113 87,-173 278,-173l85 0 0 189c-42,80 -135,126 -209,126z"/>
 </g>
</svg>
