<?xml version="1.0" encoding="UTF-8"?>
<!DOCTYPE svg PUBLIC "-//W3C//DTD SVG 1.1//EN" "http://www.w3.org/Graphics/SVG/1.1/DTD/svg11.dtd">
<!-- Creator: CorelDRAW X8 -->
<svg xmlns="http://www.w3.org/2000/svg" xml:space="preserve" width="42.3332mm" height="42.3332mm" version="1.1" style="shape-rendering:geometricPrecision; text-rendering:geometricPrecision; image-rendering:optimizeQuality; fill-rule:evenodd; clip-rule:evenodd"
viewBox="0 0 4233 4233"
 xmlns:xlink="http://www.w3.org/1999/xlink">
 <defs>
  <style type="text/css">
   <![CDATA[
    .fil0 {fill:gray}
   ]]>
  </style>
 </defs>
 <g id="Слой_x0020_1">
  <metadata id="CorelCorpID_0Corel-Layer"/>
  <path class="fil0" d="M0 0l4233 0 0 4233 -4233 0 0 -4233zm1339 750c47,-47 47,-123 0,-170 -46,-47 -122,-47 -169,0 -261,260 -391,602 -392,945l0 4c1,342 131,684 392,945 23,23 54,35 85,35 30,0 61,-12 84,-35 47,-47 47,-123 0,-170 -428,-428 -428,-1126 0,-1554zm1725 -170c-24,-23 -55,-35 -85,-35 -31,0 -62,12 -85,35 -47,47 -47,123 0,170 208,207 322,483 322,777 0,293 -114,569 -322,777 -47,47 -47,123 0,170 23,23 54,35 85,35 30,0 61,-12 85,-35 253,-253 392,-589 392,-947 0,-358 -139,-694 -392,-947zm-1571 1571c23,23 54,35 85,35 31,0 61,-12 85,-35 47,-47 47,-123 0,-170 -250,-250 -250,-658 0,-908 47,-47 47,-123 0,-170 -47,-47 -123,-47 -170,0 -344,344 -344,904 0,1248zm1078 0c23,23 54,35 84,35 31,0 62,-12 85,-35 167,-167 259,-389 259,-624 0,-236 -92,-457 -259,-624 -47,-47 -123,-47 -169,0 -47,47 -47,123 0,170 121,121 188,282 188,454 0,171 -67,333 -188,454 -47,47 -47,123 0,170zm-454 -319c168,0 304,-137 304,-305 0,-168 -136,-305 -304,-305 -169,0 -305,137 -305,305 0,168 136,305 305,305zm114 169c-16,-49 -62,-83 -114,-83 -52,0 -98,34 -115,83l-520 1606c-20,63 14,131 77,151 13,4 25,6 37,6 51,0 98,-32 115,-83l63 -195 685 0 64 195c20,63 88,98 151,77 63,-20 98,-88 77,-151l-520 -1606zm-114 427l100 310 -201 0 101 -310zm-265 818l86 -268 357 0 87 268 -530 0z"/>
 </g>
</svg>
