<?xml version="1.0" encoding="UTF-8"?>
<!DOCTYPE svg PUBLIC "-//W3C//DTD SVG 1.1//EN" "http://www.w3.org/Graphics/SVG/1.1/DTD/svg11.dtd">
<!-- Creator: CorelDRAW X8 -->
<svg xmlns="http://www.w3.org/2000/svg" xml:space="preserve" width="42.3332mm" height="42.3332mm" version="1.1" style="shape-rendering:geometricPrecision; text-rendering:geometricPrecision; image-rendering:optimizeQuality; fill-rule:evenodd; clip-rule:evenodd"
viewBox="0 0 4233 4233"
 xmlns:xlink="http://www.w3.org/1999/xlink">
 <defs>
  <style type="text/css">
   <![CDATA[
    .fil0 {fill:gray}
   ]]>
  </style>
 </defs>
 <g id="Слой_x0020_1">
  <metadata id="CorelCorpID_0Corel-Layer"/>
  <path class="fil0" d="M0 0l4233 0 0 4233 -4233 0 0 -4233zm2603 3458l756 0 0 -1335 -754 419c-7,3 -14,6 -21,8 -8,2 -16,3 -23,3l0 0c-25,0 -48,-10 -64,-26 -17,-17 -27,-40 -27,-65l0 0 0 -339 -754 419c-6,3 -14,6 -21,8 -8,2 -15,3 -23,3l0 0c-25,0 -48,-10 -64,-26 -16,-17 -27,-40 -27,-65l0 0 0 -339 -707 393 0 942 757 0 0 -255c0,-25 10,-48 26,-64 17,-17 39,-27 65,-27l790 0c25,0 48,10 64,27 16,16 27,39 27,64l0 255zm-395 -164l0 164 213 0 0 -164 -213 0zm-395 0l0 164 213 0 0 -164 -213 0zm1302 -2503l0 -15 -169 0 -1 15 170 0zm5 182l-180 0 -34 1194 245 -136 -31 -1058zm331 905c16,0 31,4 45,12 14,8 25,20 33,33 8,14 12,29 12,46l0 1580c0,25 -10,48 -27,64 -16,16 -39,27 -64,27l-2667 0c-25,0 -47,-11 -64,-27 -16,-16 -27,-39 -27,-64l0 -1087 1 0c0,-16 4,-32 12,-46 8,-13 20,-25 34,-33l889 -494c7,-4 14,-6 21,-8 8,-2 16,-3 23,-3l0 0c25,0 48,10 65,26 16,17 26,39 26,65l0 0 0 339 754 -419c7,-4 14,-6 21,-8 8,-2 16,-3 23,-3l0 0c25,0 48,10 64,26 17,17 27,39 27,65l0 0 0 339 69 -38 45 -1588c1,-24 12,-47 28,-62 16,-17 39,-26 63,-26l346 0c24,0 47,9 63,26 17,15 27,38 28,62l36 1249 76 -42c14,-8 29,-11 45,-11zm-2330 888l213 0 0 -15 -213 0 0 15zm-91 -197l395 0c25,0 48,10 65,27 16,16 26,39 26,64l0 197c0,25 -10,48 -26,65 -17,16 -40,26 -65,26l-395 0c-25,0 -48,-10 -64,-26 -17,-17 -27,-40 -27,-65l0 -197c0,-25 10,-48 27,-64 16,-17 39,-27 64,-27zm980 197l213 0 0 -15 -213 0 0 15zm-91 -197l395 0c25,0 48,10 65,27 16,16 26,39 26,64l0 197c0,25 -10,48 -26,65 -17,16 -40,26 -65,26l-395 0c-25,0 -48,-10 -64,-26 -17,-17 -27,-40 -27,-65l0 -197c0,-25 10,-48 27,-64 16,-17 39,-27 64,-27zm980 197l213 0 0 -15 -213 0 0 15zm-91 -197l395 0c25,0 48,10 64,27 17,16 27,39 27,64l0 197c0,25 -10,48 -27,65 -16,16 -39,26 -64,26l-395 0c-25,0 -48,-10 -64,-26 -17,-17 -27,-40 -27,-65l0 -197c0,-25 10,-48 27,-64 16,-17 39,-27 64,-27z"/>
 </g>
</svg>
